<?xml version="1.0" encoding="utf-8"?>
<!-- Generator: Adobe Illustrator 24.2.3, SVG Export Plug-In . SVG Version: 6.00 Build 0)  -->
<svg version="1.1" id="Layer_1" xmlns="http://www.w3.org/2000/svg" xmlns:xlink="http://www.w3.org/1999/xlink" x="0px" y="0px"
	 viewBox="0 0 216.18 216.18" style="enable-background:new 0 0 216.18 216.18;" xml:space="preserve">
<style type="text/css">
	.st0{fill:none;stroke:#42B04F;stroke-width:4;stroke-linecap:round;stroke-linejoin:round;stroke-miterlimit:10;}
	.st1{fill:none;stroke:#FFB0BB;stroke-width:0.25;stroke-miterlimit:10;}
	.st2{fill-rule:evenodd;clip-rule:evenodd;}
	.st3{opacity:0.31;fill:#FFB062;}
	.st4{opacity:0.24;fill:#FFB0BB;}
	.st5{fill:none;}
</style>
<g>
	<path d="M152.31,116.66c-17.44,0-31.61,14.15-31.61,31.61s14.17,31.61,31.61,31.61c17.44,0,31.61-14.15,31.61-31.61
		S169.75,116.66,152.31,116.66z M171.21,152.05h-15.12v15.12h-7.57v-15.12H133.4l0.01-7.56h15.12v-15.12l7.56-0.01v15.12h15.12
		V152.05z"/>
</g>
<g>
	<path class="st5" d="M125,114.95L93.63,57.43l-42.41,77.74h61.05 M93.63,129.03c-3.39,0-6.14-2.75-6.14-6.14s2.76-6.14,6.14-6.14
		s6.14,2.75,6.14,6.14S97.02,129.03,93.63,129.03z M98.54,110.61h-9.83V81.13h9.83V110.61z"/>
	<rect x="88.72" y="81.13" width="9.83" height="29.48"/>
	<path d="M112.28,135.17H51.23l42.41-77.74L125,114.95c2.66-1.89,5.62-3.39,8.81-4.38L93.63,36.91L34.67,145h77.48
		c-0.22-1.49-0.33-3-0.33-4.55C111.82,138.65,111.98,136.89,112.28,135.17z"/>
	<circle cx="93.63" cy="122.89" r="6.14"/>
</g>
</svg>
