<?xml version="1.0" encoding="utf-8"?>
<!-- Generator: Adobe Illustrator 24.2.3, SVG Export Plug-In . SVG Version: 6.00 Build 0)  -->
<svg version="1.1" id="Layer_1" xmlns="http://www.w3.org/2000/svg" xmlns:xlink="http://www.w3.org/1999/xlink" x="0px" y="0px"
	 viewBox="0 0 216.18 216.18" style="enable-background:new 0 0 216.18 216.18;" xml:space="preserve">
<style type="text/css">
	.st0{fill:none;stroke:#42B04F;stroke-width:4;stroke-linecap:round;stroke-linejoin:round;stroke-miterlimit:10;}
	.st1{fill:none;stroke:#FFB0BB;stroke-width:0.25;stroke-miterlimit:10;}
	.st2{fill-rule:evenodd;clip-rule:evenodd;}
	.st3{opacity:0.31;fill:#FFB062;}
	.st4{opacity:0.24;fill:#FFB0BB;}
	.st5{fill:none;}
</style>
<g>
	<path class="st5" d="M89.55,74.21c-11.18,0-16.91-6.63-23.5-14.34H46.53v76.48h64.32c2.3-16.07,15.14-28.74,31.28-30.81V74.21
		H89.55z"/>
	<path d="M110.85,136.35H46.53V59.87h19.52c6.6,7.71,12.32,14.34,23.5,14.34h52.58v31.33c1.53-0.2,3.08-0.31,4.66-0.31
		c1.66,0,3.3,0.12,4.9,0.34V64.65H89.55c-7.79,0-11.02-5.06-19.12-14.34H36.97v95.6h73.77c-0.17-1.43-0.27-2.89-0.27-4.37
		C110.47,139.78,110.6,138.05,110.85,136.35z"/>
	<rect x="151.13" y="145.89" width="0.56" height="0.02"/>
</g>
<g>
	<path d="M150.31,116.66c-17.44,0-31.61,14.15-31.61,31.61s14.17,31.61,31.61,31.61c17.44,0,31.61-14.15,31.61-31.61
		S167.75,116.66,150.31,116.66z M169.21,152.05h-15.12v15.12h-7.57v-15.12H131.4l0.01-7.56h15.12v-15.12l7.56-0.01v15.12h15.12
		V152.05z"/>
</g>
</svg>
