<svg xmlns="http://www.w3.org/2000/svg" class="cs-icon__svg" viewBox="0 0 31 36">
<path class="background" d="M11.4,30.5c-0.3,0-0.5-0.1-0.8-0.2l-8.9-5.5C1.2,24.5,1,24,1,23.5v-11c0-0.5,0.3-1,0.7-1.3l8.9-5.5c0.5-0.3,1-0.3,1.5,0 l8.9,5.5c0.5,0.3,0.7,0.8,0.7,1.3v10.9c0,0.5-0.3,1-0.7,1.3l-8.9,5.5C11.9,30.4,11.6,30.5,11.4,30.5"></path>
<path class="icon" d="M14.7999998,14 C16.7999998,16 16.7999998,19.1 14.7999998,21.1 C12.7999998,23.1 9.69999981,23.1 7.69999981,21.1 C5.69999981,19.1 5.69999981,16 7.69999981,14 C9.69999981,12 12.7999998,12 14.7999998,14 Z"></path>
<path class="icon" d="M9.29999981,15.9 L6.49999981,13.1"></path>
<path class="icon" d="M16.3999998,23.0 L13.5999998,20.2"></path>
<path class="icon" d="M16.3999998,13.1 L13.5999998,15.9"></path>
<path class="icon" d="M6.49999981,22.9 L9.29999981,20.1"></path>
<path class="background-shield-top" d="M22.7,17.1c-0.3,0-0.5-0.1-0.7-0.2c-1.9-1.2-6.2-4.3-6.2-7.5V3c0-0.5,0.2-0.8,0.6-1C19,0.5,26.6,0.5,29.1,2
  c0.4,0.2,0.6,0.7,0.6,1v6.4c0,3.1-4.3,6.2-6.2,7.5C23.3,17,23,17.1,22.7,17.1"></path>
<path class="shield-top-prevented" d="M25.9,6.5l-4.7,3.4L20,8.3"></path>
<path class="shield-top-overwatch" d="M23.2,8.8c-0.2-0.2-0.9-1-1.6-1c-1.1,0-1.1,0.3-1.5,0.9c-0.3,0-0.7-0.5-0.7-1.2c0-1,0.9-1.4,1.4-1.5
  c0-0.7,1-1.5,2.2-1.5c1.1,0,2.1,0.5,2.3,2.4l0.5,4.5 M20,11.4l1.5-2 M22.2,6l0.7-0.4"></path>

<path class="background-shield-bottom" d="M22.7,35.1c-0.3,0-0.5-0.1-0.7-0.2c-1.9-1.2-6.2-4.3-6.2-7.5V21c0-0.5,0.2-0.8,0.6-1c2.6-1.5,10.2-1.5,12.7,0
  c0.4,0.2,0.6,0.7,0.6,1v6.4c0,3.1-4.3,6.2-6.2,7.5C23.3,35,23,35.1,22.7,35.1"></path>
<path class="shield-bottom-prevented" d="M25.9,24.5l-4.7,3.4L20,26.3"></path>
<path class="shield-bottom-overwatch" d="M23.2,26.8c-0.2-0.2-0.9-1-1.6-1c-1.1,0-1.1,0.3-1.5,0.9c-0.3,0-0.7-0.5-0.7-1.2c0-1,0.9-1.4,1.4-1.5
  c0-0.7,1-1.5,2.2-1.5c1.1,0,2.1,0.5,2.3,2.4l0.5,4.5 M20,29.4l1.5-2 M22.2,24l0.7-0.4"></path>

<path class="other-prevented-action-top" d="M26,6.3c0.4,1.2,0.1,2.6-0.9,3.5c-1,1-2.4,1.2-3.6,0.8 M25.1,4.9c-1.4-1.4-3.5-1.4-4.9,0
c-1.3,1.3-1.4,3.4-0.1,4.8c0,0,0.1,0.1,0.1,0.1 M19.1,10.9l7.1-7.1"></path>
<path class="other-prevented-action-bottom" d="M26,24.3c0.4,1.2,0.1,2.6-0.9,3.5c-1,1-2.4,1.2-3.6,0.8 M25.1,22.9c-1.4-1.4-3.5-1.4-4.9,0
c-1.3,1.3-1.4,3.4-0.1,4.8c0,0,0.1,0.1,0.1,0.1 M19.1,28.9l7.1-7.1"></path>
</svg>